<svg width="21" height="21" viewBox="0 0 21 21" fill="none" xmlns="http://www.w3.org/2000/svg">
<path opacity="0.1" fill-rule="evenodd" clip-rule="evenodd" d="M10.5 21C16.299 21 21 16.299 21 10.5C21 4.70101 16.299 0 10.5 0C4.70101 0 0 4.70101 0 10.5C0 16.299 4.70101 21 10.5 21Z" fill="#4360DF"/>
<path fill-rule="evenodd" clip-rule="evenodd" d="M13.4548 11.2057L9.89572 14.7648C9.55317 15.1074 9.00085 15.1104 8.65675 14.7663C8.31505 14.4246 8.32002 13.8656 8.65828 13.5274L11.6129 10.5728L8.65828 7.6182C8.31573 7.27564 8.31266 6.72332 8.65675 6.37923C8.99846 6.03752 9.55746 6.0425 9.89572 6.38076L13.4548 9.93988C13.653 10.138 13.7375 10.4063 13.707 10.6639C13.6893 10.8624 13.6048 11.0557 13.4548 11.2057Z" fill="#4360DF"/>
</svg>
