<svg width="28" height="33" viewBox="0 0 28 33" fill="none" xmlns="http://www.w3.org/2000/svg">
<path d="M2.073 10.3257C0.928055 10.3257 0 11.1334 0 12.1321V19.8589C0 20.8566 0.928169 21.6664 2.073 21.6664C3.21681 21.6664 4.146 20.8567 4.146 19.8589V12.1321C4.14612 11.1344 3.21692 10.3257 2.073 10.3257ZM17.753 2.76937L19.5647 0.970114C19.7886 0.748085 19.7886 0.389685 19.5647 0.166522C19.3407 -0.0555072 18.9799 -0.0555072 18.7558 0.166522L16.5263 2.38318C15.7288 2.18895 14.8877 2.08162 14.0125 2.08162C13.1477 2.08162 12.3138 2.18804 11.5257 2.37705L9.30015 0.166635C9.07619 -0.0553937 8.71417 -0.0553937 8.49124 0.166635C8.26729 0.388664 8.26729 0.748085 8.49124 0.970227L10.2936 2.76018C7.28627 3.90868 5.19663 6.39887 5.19663 9.29284C5.19663 9.32801 22.8263 9.29489 22.8263 9.29284C22.8273 6.40613 20.749 3.92206 17.753 2.76937ZM11.4188 7.23241C10.8454 7.23241 10.3818 6.77179 10.3818 6.20157C10.3818 5.63249 10.8453 5.17073 11.4188 5.17073C11.9924 5.17073 12.4559 5.63238 12.4559 6.20157C12.4569 6.77066 11.9902 7.23241 11.4188 7.23241ZM16.6051 7.23241C16.0317 7.23241 15.568 6.77179 15.568 6.20157C15.568 5.63249 16.0315 5.17073 16.6051 5.17073C17.1785 5.17073 17.6422 5.63238 17.6422 6.20157C17.6422 6.77077 17.1775 7.23241 16.6051 7.23241ZM25.928 10.3257C24.7831 10.3257 23.854 11.1334 23.854 12.1321V19.8589C23.854 20.8566 24.7832 21.6664 25.928 21.6664C27.0729 21.6664 28 20.8557 28 19.8589V12.1321C28 11.1344 27.0708 10.3257 25.928 10.3257ZM5.19663 22.688C5.19663 24.3922 6.58422 25.7721 8.29736 25.7782V31.1925C8.29736 32.1912 9.22553 33 10.3704 33C11.5142 33 12.4423 32.1913 12.4423 31.1925V25.7782H15.5577V31.1925C15.5577 32.1912 16.4858 33 17.6307 33C18.7745 33 19.7026 32.1913 19.7026 31.1925V25.7782H19.7161C21.4345 25.7782 22.8272 24.3942 22.8272 22.688V10.3227H5.19766V22.688H5.19663Z" fill="#4360DF"/>
</svg>
