<svg width="16" height="18" viewBox="0 0 16 18" fill="none" xmlns="http://www.w3.org/2000/svg">
<path opacity="0.4" d="M1.06612 6.19439C0.477285 6.19439 0 6.61491 0 7.13491V11.1579C0 11.6774 0.477344 12.0991 1.06612 12.0991C1.65436 12.0991 2.13223 11.6775 2.13223 11.1579V7.13491C2.13229 6.61544 1.65442 6.19439 1.06612 6.19439ZM9.93012 1.44191L10.8618 0.5051C10.977 0.389499 10.977 0.202894 10.8618 0.0867013C10.7467 -0.0289004 10.5611 -0.0289004 10.4458 0.0867013L9.29922 1.24083C8.88907 1.1397 8.45655 1.08382 8.00644 1.08382C7.56167 1.08382 7.13284 1.13923 6.72749 1.23764L5.58293 0.0867604C5.46776 -0.0288413 5.28158 -0.0288413 5.16693 0.0867604C5.05175 0.202362 5.05175 0.389499 5.16693 0.505159L6.09385 1.43712C4.54722 2.0351 3.47255 3.33164 3.47255 4.83842C3.47255 4.85673 12.5392 4.83842 12.5392 4.83842C12.5397 3.33542 11.4709 2.04207 9.93012 1.44191ZM14.9344 6.19439C14.3456 6.19439 13.8678 6.61491 13.8678 7.13491V11.1579C13.8678 11.6774 14.3456 12.0991 14.9344 12.0991C15.5232 12.0991 16 11.6769 16 11.1579V7.13491C16 6.61544 15.5221 6.19439 14.9344 6.19439ZM3.47255 12.6309C3.47255 13.5182 4.18617 14.2367 5.06722 14.2399V17.0589C5.06722 17.5789 5.54456 18 6.13333 18C6.72158 18 7.19892 17.5789 7.19892 17.0589V14.2399H8.80108V17.0589C8.80108 17.5789 9.27843 18 9.8672 18C10.4554 18 10.9328 17.5789 10.9328 17.0589V14.2399H10.9397C11.8234 14.2399 12.5397 13.5193 12.5397 12.6309V6.19279H3.47308L3.47255 12.6309Z" fill="#4360DF"/>
</svg>
