<svg width="14" height="17" viewBox="0 0 14 17" fill="none" xmlns="http://www.w3.org/2000/svg">
<path opacity="0.4" d="M11.6928 9.03277C11.6711 6.87985 13.4686 5.84733 13.5489 5.79603C12.5389 4.33476 10.9657 4.13458 10.405 4.11144C9.06614 3.9774 7.79253 4.89085 7.11302 4.89085C6.43523 4.89085 5.38667 4.13126 4.27625 4.15122C2.8169 4.17267 1.47128 4.99023 0.719847 6.28252C-0.796392 8.88399 0.331552 12.7379 1.80937 14.8477C2.5315 15.8804 3.39257 17.0404 4.52314 16.9989C5.61186 16.956 6.02356 16.3024 7.33982 16.3024C8.65606 16.3024 9.02608 16.9989 10.1782 16.9775C11.3498 16.956 12.092 15.925 12.8092 14.8891C13.6384 13.691 13.9799 12.5311 14 12.4715C13.974 12.4598 11.7155 11.6043 11.6928 9.03277ZM9.52795 2.71472C10.128 1.99491 10.533 0.996259 10.4225 0C9.5582 0.0347968 8.51052 0.569267 7.89038 1.28745C7.33395 1.92455 6.84686 2.9414 6.97739 3.91773C7.9423 3.99217 8.92725 3.4329 9.52795 2.71472Z" fill="#4360DF"/>
</svg>
