<svg width="32" height="32" viewBox="0 0 32 32" fill="none" xmlns="http://www.w3.org/2000/svg">
<path d="M24.7153 17.0029C24.675 12.9503 28.0131 11.0067 28.1622 10.9102C26.2866 8.15956 23.3648 7.78274 22.3237 7.73918C19.8371 7.48687 17.4718 9.2063 16.2099 9.2063C14.9511 9.2063 13.0038 7.77649 10.9416 7.81406C8.23138 7.85443 5.73238 9.39337 4.33686 11.8259C1.52099 16.7228 3.61574 23.9772 6.36027 27.9486C7.70135 29.8926 9.30049 32.076 11.4001 31.998C13.422 31.9171 14.1866 30.6868 16.6311 30.6868C19.0755 30.6868 19.7627 31.998 21.9024 31.9577C24.0781 31.9172 25.4566 29.9765 26.7884 28.0266C28.3285 25.7714 28.9626 23.5879 29 23.4759C28.9517 23.4537 24.7573 21.8434 24.7153 17.0029ZM20.6948 5.11006C21.8091 3.75512 22.5613 1.87531 22.3561 0C20.751 0.0654999 18.8052 1.07156 17.6536 2.42344C16.6202 3.62268 15.7156 5.53674 15.958 7.37456C17.75 7.51468 19.5792 6.46193 20.6948 5.11006Z" fill="#4360DF"/>
</svg>
