<svg width="24" height="24" viewBox="0 0 24 24" fill="none" xmlns="http://www.w3.org/2000/svg">
<path opacity="0.4" d="M5.06612 9.19439C4.47729 9.19439 4 9.61491 4 10.1349V14.1579C4 14.6774 4.47734 15.0991 5.06612 15.0991C5.65436 15.0991 6.13223 14.6775 6.13223 14.1579V10.1349C6.13229 9.61544 5.65442 9.19439 5.06612 9.19439ZM13.9301 4.44191L14.8618 3.5051C14.977 3.3895 14.977 3.20289 14.8618 3.0867C14.7467 2.9711 14.5611 2.9711 14.4458 3.0867L13.2992 4.24083C12.8891 4.1397 12.4565 4.08382 12.0064 4.08382C11.5617 4.08382 11.1328 4.13923 10.7275 4.23764L9.58293 3.08676C9.46776 2.97116 9.28158 2.97116 9.16693 3.08676C9.05175 3.20236 9.05175 3.3895 9.16693 3.50516L10.0938 4.43712C8.54722 5.0351 7.47255 6.33164 7.47255 7.83842C7.47255 7.85673 16.5392 7.83842 16.5392 7.83842C16.5397 6.33542 15.4709 5.04207 13.9301 4.44191ZM18.9344 9.19439C18.3456 9.19439 17.8678 9.61491 17.8678 10.1349V14.1579C17.8678 14.6774 18.3456 15.0991 18.9344 15.0991C19.5232 15.0991 20 14.6769 20 14.1579V10.1349C20 9.61544 19.5221 9.19439 18.9344 9.19439ZM7.47255 15.6309C7.47255 16.5182 8.18617 17.2367 9.06722 17.2399V20.0589C9.06722 20.5789 9.54456 21 10.1333 21C10.7216 21 11.1989 20.5789 11.1989 20.0589V17.2399H12.8011V20.0589C12.8011 20.5789 13.2784 21 13.8672 21C14.4554 21 14.9328 20.5789 14.9328 20.0589V17.2399H14.9397C15.8234 17.2399 16.5397 16.5193 16.5397 15.6309V9.19279H7.47308L7.47255 15.6309Z" fill="#4360DF"/>
</svg>
