<svg width="24" height="24" fill="none" xmlns="http://www.w3.org/2000/svg"><path d="M21.75 12c0 5.385-4.365 9.75-9.75 9.75S2.25 17.385 2.25 12 6.615 2.25 12 2.25s9.75 4.365 9.75 9.75z" fill="#B4BFF2"/><path d="M6.97 12c0 .695-.553 1.259-1.235 1.259a1.247 1.247 0 0 1-1.235-1.26c0-.694.553-1.258 1.235-1.258S6.97 11.305 6.97 12zm7.026 6.12a1.223 1.223 0 0 0 1.687.461c.59-.347.793-1.117.451-1.72a1.222 1.222 0 0 0-1.686-.46 1.272 1.272 0 0 0-.452 1.72zm2.138-10.982a1.271 1.271 0 0 0-.452-1.72 1.222 1.222 0 0 0-1.686.461 1.272 1.272 0 0 0 .452 1.72c.59.347 1.346.141 1.686-.46zM11.955 8.41c1.84 0 3.35 1.438 3.508 3.272l1.787-.029a5.438 5.438 0 0 0-1.558-3.492 1.705 1.705 0 0 1-1.496-.118 1.769 1.769 0 0 1-.848-1.262 5.214 5.214 0 0 0-1.393-.19c-.845 0-1.644.202-2.353.56l.87 1.592c.45-.213.953-.333 1.483-.333zM8.433 12c0-1.214.592-2.288 1.498-2.938L9.013 7.5a5.414 5.414 0 0 0-2.189 3.121c.396.325.649.822.649 1.38a1.78 1.78 0 0 1-.649 1.38 5.416 5.416 0 0 0 2.19 3.121l.917-1.563A3.607 3.607 0 0 1 8.433 12zm3.522 3.59c-.53 0-1.033-.12-1.484-.334l-.87 1.592a5.2 5.2 0 0 0 2.354.56c.482 0 .95-.065 1.393-.189.078-.511.374-.983.848-1.262a1.705 1.705 0 0 1 1.496-.118 5.44 5.44 0 0 0 1.558-3.492l-1.787-.029c-.158 1.834-1.668 3.272-3.508 3.272z" fill="#fff"/></svg>