<svg width="938" height="280" viewBox="0 0 938 280" fill="none" xmlns="http://www.w3.org/2000/svg">
<g filter="url(#filter0_d)">
<path fill-rule="evenodd" clip-rule="evenodd" d="M802.738 121C817.063 121 828.677 109.359 828.677 95C828.677 80.6406 817.063 69 802.738 69C788.412 69 776.798 80.6406 776.798 95C776.798 109.359 788.412 121 802.738 121Z" fill="white"/>
</g>
<g filter="url(#filter1_d)">
<path fill-rule="evenodd" clip-rule="evenodd" d="M802.738 109C817.063 109 828.677 97.3594 828.677 83C828.677 68.6406 817.063 57 802.738 57C788.412 57 776.798 68.6406 776.798 83C776.798 97.3594 788.412 109 802.738 109Z" fill="white"/>
</g>
<g filter="url(#filter2_d)">
<path fill-rule="evenodd" clip-rule="evenodd" d="M802.738 97C817.063 97 828.677 85.3594 828.677 71C828.677 56.6406 817.063 45 802.738 45C788.412 45 776.798 56.6406 776.798 71C776.798 85.3594 788.412 97 802.738 97Z" fill="white"/>
</g>
<g filter="url(#filter3_d)">
<path fill-rule="evenodd" clip-rule="evenodd" d="M802.738 85C817.063 85 828.677 73.3594 828.677 59C828.677 44.6406 817.063 33 802.738 33C788.412 33 776.798 44.6406 776.798 59C776.798 73.3594 788.412 85 802.738 85Z" fill="#4360DF"/>
</g>
<path d="M795.432 59.1896V60.3853C795.432 61.1455 795.259 61.8056 794.915 62.3658C794.573 62.9259 794.11 63.3598 793.525 63.6676C792.94 63.9754 792.283 64.1293 791.554 64.1293C790.741 64.1293 790.02 63.9354 789.389 63.5476C788.758 63.1598 788.261 62.6043 787.897 61.881C787.537 61.1547 787.357 60.2868 787.357 59.2773C787.357 58.2648 787.536 57.3969 787.893 56.6737C788.253 55.9473 788.745 55.3903 789.37 55.0025C789.995 54.6116 790.703 54.4162 791.494 54.4162C792.423 54.4162 793.23 54.6824 793.913 55.2148C794.599 55.7442 795.084 56.4921 795.367 57.4585L793.885 57.5554C793.691 56.9583 793.379 56.5105 792.948 56.212C792.517 55.9104 792.032 55.7596 791.494 55.7596C790.992 55.7596 790.538 55.8904 790.132 56.152C789.726 56.4105 789.402 56.7998 789.162 57.32C788.922 57.8401 788.802 58.4925 788.802 59.2773C788.802 60.0621 788.922 60.7146 789.162 61.2347C789.406 61.7518 789.735 62.1396 790.15 62.3981C790.566 62.6566 791.034 62.7859 791.554 62.7859C792.028 62.7859 792.449 62.6858 792.819 62.4858C793.188 62.2857 793.479 62.0057 793.691 61.6456C793.904 61.2824 794.01 60.8623 794.01 60.3853H791.854V59.1896H795.432ZM805.775 54.5455V64H804.348L799.898 57.103H799.81V64H798.347V54.5455H799.778L804.238 61.4656H804.325V54.5455H805.775ZM816.932 59.2773C816.932 60.2868 816.752 61.1547 816.392 61.881C816.031 62.6043 815.537 63.1598 814.91 63.5476C814.282 63.9354 813.569 64.1293 812.772 64.1293C811.969 64.1293 811.253 63.9354 810.626 63.5476C809.998 63.1598 809.502 62.6043 809.139 61.881C808.779 61.1547 808.599 60.2868 808.599 59.2773C808.599 58.2648 808.779 57.3969 809.139 56.6737C809.502 55.9473 809.998 55.3903 810.626 55.0025C811.253 54.6116 811.969 54.4162 812.772 54.4162C813.569 54.4162 814.282 54.6116 814.91 55.0025C815.537 55.3903 816.031 55.9473 816.392 56.6737C816.752 57.3969 816.932 58.2648 816.932 59.2773ZM815.487 59.2773C815.487 58.4925 815.367 57.8401 815.127 57.32C814.89 56.7998 814.566 56.4105 814.157 56.152C813.748 55.8904 813.286 55.7596 812.772 55.7596C812.258 55.7596 811.795 55.8904 811.383 56.152C810.97 56.4105 810.644 56.7998 810.404 57.32C810.164 57.8401 810.044 58.4925 810.044 59.2773C810.044 60.0621 810.164 60.7146 810.404 61.2347C810.644 61.7518 810.97 62.1396 811.383 62.3981C811.795 62.6566 812.258 62.7859 812.772 62.7859C813.286 62.7859 813.748 62.6566 814.157 62.3981C814.566 62.1396 814.89 61.7518 815.127 61.2347C815.367 60.7146 815.487 60.0621 815.487 59.2773Z" fill="white"/>
<g filter="url(#filter4_d)">
<path fill-rule="evenodd" clip-rule="evenodd" d="M151.265 54C162.836 54 172.216 44.598 172.216 33C172.216 21.402 162.836 12 151.265 12C139.695 12 130.315 21.402 130.315 33C130.315 44.598 139.695 54 151.265 54Z" fill="white"/>
</g>
<g filter="url(#filter5_d)">
<path fill-rule="evenodd" clip-rule="evenodd" d="M151.265 44C162.836 44 172.216 34.598 172.216 23C172.216 11.402 162.836 2 151.265 2C139.695 2 130.315 11.402 130.315 23C130.315 34.598 139.695 44 151.265 44Z" fill="#4360DF"/>
</g>
<path d="M145.602 25.9375V27H140.567V19H145.559V20.0625H141.805V22.4609H145.106V23.5273H141.805V25.9375H145.602ZM153.886 19V20.0625H151.425V27H150.191V20.0625H147.73V19H153.886ZM160.633 22.4609V23.5273H157.426V27H156.188V19H161.161V20.0625H157.426V22.4609H160.633Z" fill="white"/>
<g filter="url(#filter6_d)">
<path fill-rule="evenodd" clip-rule="evenodd" d="M83.4245 274C94.9954 274 104.375 264.598 104.375 253C104.375 241.402 94.9954 232 83.4245 232C71.8537 232 62.4736 241.402 62.4736 253C62.4736 264.598 71.8537 274 83.4245 274Z" fill="white"/>
</g>
<g filter="url(#filter7_d)">
<path fill-rule="evenodd" clip-rule="evenodd" d="M83.4245 264C94.9954 264 104.375 254.598 104.375 243C104.375 231.402 94.9954 222 83.4245 222C71.8537 222 62.4736 231.402 62.4736 243C62.4736 254.598 71.8537 264 83.4245 264Z" fill="#4360DF"/>
</g>
<path d="M77.761 245.937V247H72.7258V239H77.718V240.063H73.9641V242.461H77.2649V243.527H73.9641V245.937H77.761ZM86.0452 239V240.063H83.5842V247H82.3499V240.063H79.8889V239H86.0452ZM92.7922 242.461V243.527H89.5852V247H88.3469V239H93.3196V240.063H89.5852V242.461H92.7922Z" fill="white"/>
<path d="M415.646 81.7855C415.646 78.5166 417.635 75.5766 420.669 74.3601L509.424 38.7751C514.679 36.6678 520.401 40.538 520.401 46.2005V113.589C520.401 116.858 518.412 119.798 515.378 121.014L426.623 156.599C421.368 158.707 415.646 154.836 415.646 149.174V81.7855Z" fill="#4360DF"/>
<g filter="url(#filter8_d)">
<rect x="414.648" y="74" width="126.703" height="89" rx="8" fill="white"/>
</g>
<path fill-rule="evenodd" clip-rule="evenodd" d="M446.573 126C457.593 126 466.526 117.046 466.526 106C466.526 94.9543 457.593 86 446.573 86C435.553 86 426.62 94.9543 426.62 106C426.62 117.046 435.553 126 446.573 126Z" fill="#4360DF"/>
<path fill-rule="evenodd" clip-rule="evenodd" d="M449.925 105.479C447.742 105.608 446.373 105.089 444.19 105.218C443.666 105.248 443.11 105.326 442.582 105.457C442.904 101.34 445.763 97.7377 449.649 97.5091C452.035 97.3687 454.418 98.8702 454.548 101.307C454.675 103.703 452.883 105.305 449.925 105.479Z" fill="white"/>
<path fill-rule="evenodd" clip-rule="evenodd" d="M443.497 113.492C441.111 113.615 438.728 112.301 438.598 110.168C438.471 108.073 440.263 106.67 443.22 106.518C445.404 106.406 446.773 106.859 448.956 106.747C449.48 106.72 450.036 106.652 450.564 106.538C450.242 110.14 447.383 113.292 443.497 113.492Z" fill="white"/>
<rect x="426.62" y="137" width="63.8504" height="4" rx="2" fill="#E9EBEC"/>
<rect x="426.62" y="147" width="50.8807" height="4" rx="2" fill="#E9EBEC"/>
<g filter="url(#filter9_d)">
<path fill-rule="evenodd" clip-rule="evenodd" d="M218.607 192C229.352 192 238.062 183.27 238.062 172.5C238.062 161.73 229.352 153 218.607 153C207.863 153 199.153 161.73 199.153 172.5C199.153 183.27 207.863 192 218.607 192Z" fill="white"/>
</g>
<g filter="url(#filter10_d)">
<path fill-rule="evenodd" clip-rule="evenodd" d="M230.579 192C241.324 192 250.034 183.27 250.034 172.5C250.034 161.73 241.324 153 230.579 153C219.835 153 211.125 161.73 211.125 172.5C211.125 183.27 219.835 192 230.579 192Z" fill="white"/>
</g>
<g filter="url(#filter11_d)">
<path fill-rule="evenodd" clip-rule="evenodd" d="M242.551 192C253.296 192 262.006 183.27 262.006 172.5C262.006 161.73 253.296 153 242.551 153C231.807 153 223.097 161.73 223.097 172.5C223.097 183.27 231.807 192 242.551 192Z" fill="#4360DF"/>
</g>
<path d="M238.011 169.455V170.324H235.997V176H234.987V170.324H232.974V169.455H238.011ZM243.531 176L242.272 173.501H240.907V176H239.894V169.455H242.185C242.705 169.455 243.13 169.543 243.461 169.72C243.791 169.897 244.035 170.137 244.192 170.442C244.352 170.747 244.432 171.091 244.432 171.474C244.432 171.926 244.33 172.303 244.125 172.606C243.923 172.908 243.644 173.138 243.288 173.296L244.675 176H243.531ZM240.907 170.324V172.615H242.125C242.6 172.615 242.936 172.512 243.135 172.305C243.333 172.099 243.432 171.826 243.432 171.487C243.432 171.287 243.395 171.098 243.32 170.922C243.245 170.745 243.118 170.601 242.936 170.49C242.755 170.379 242.505 170.324 242.185 170.324H240.907ZM247.163 169.455L248.688 171.989H248.739L250.263 169.455H251.433L249.423 172.727L251.449 176H250.27L248.739 173.494H248.688L247.157 176H245.977L248.036 172.727L245.993 169.455H247.163Z" fill="white"/>
<g filter="url(#filter12_d)">
<path fill-rule="evenodd" clip-rule="evenodd" d="M653.587 220C665.985 220 676.035 209.926 676.035 197.5C676.035 185.074 665.985 175 653.587 175C641.19 175 631.14 185.074 631.14 197.5C631.14 209.926 641.19 220 653.587 220Z" fill="white"/>
</g>
<g filter="url(#filter13_d)">
<path fill-rule="evenodd" clip-rule="evenodd" d="M665.559 220C677.957 220 688.007 209.926 688.007 197.5C688.007 185.074 677.957 175 665.559 175C653.162 175 643.112 185.074 643.112 197.5C643.112 209.926 653.162 220 665.559 220Z" fill="white"/>
</g>
<g filter="url(#filter14_d)">
<path fill-rule="evenodd" clip-rule="evenodd" d="M677.531 220C689.929 220 699.979 209.926 699.979 197.5C699.979 185.074 689.929 175 677.531 175C665.134 175 655.084 185.074 655.084 197.5C655.084 209.926 665.134 220 677.531 220Z" fill="white"/>
</g>
<g filter="url(#filter15_d)">
<path fill-rule="evenodd" clip-rule="evenodd" d="M689.503 220C701.901 220 711.951 209.926 711.951 197.5C711.951 185.074 701.901 175 689.503 175C677.106 175 667.056 185.074 667.056 197.5C667.056 209.926 677.106 220 689.503 220Z" fill="#4360DF"/>
</g>
<path d="M682.119 195.164C682.067 194.776 681.9 194.479 681.619 194.273C681.34 194.065 680.973 193.961 680.517 193.961C680.046 193.961 679.663 194.069 679.369 194.285C679.077 194.499 678.931 194.775 678.931 195.113C678.931 195.413 679.062 195.655 679.322 195.84C679.585 196.022 679.967 196.186 680.467 196.332L681.088 196.512C681.843 196.733 682.413 197.023 682.799 197.383C683.187 197.74 683.381 198.21 683.381 198.793C683.381 199.254 683.263 199.66 683.029 200.012C682.795 200.361 682.46 200.634 682.025 200.832C681.59 201.03 681.072 201.129 680.471 201.129C679.911 201.129 679.412 201.036 678.974 200.852C678.537 200.664 678.188 200.395 677.928 200.043C677.667 199.691 677.527 199.266 677.506 198.766H678.748C678.779 199.198 678.959 199.521 679.287 199.734C679.618 199.948 680.012 200.055 680.471 200.055C680.984 200.055 681.398 199.936 681.713 199.699C682.028 199.462 682.185 199.161 682.185 198.797C682.185 198.474 682.058 198.22 681.803 198.035C681.547 197.85 681.137 197.673 680.572 197.504L679.853 197.297C679.215 197.109 678.702 196.841 678.314 196.492C677.926 196.141 677.732 195.686 677.732 195.129C677.732 194.681 677.855 194.289 678.099 193.953C678.347 193.617 678.683 193.357 679.107 193.172C679.532 192.984 680.01 192.891 680.541 192.891C681.075 192.891 681.546 192.987 681.955 193.18C682.364 193.37 682.687 193.637 682.924 193.98C683.161 194.322 683.288 194.716 683.306 195.164H682.119ZM692.095 193V201H690.888L687.122 195.164H687.048V201H685.809V193H687.02L690.794 198.855H690.868V193H692.095ZM700.547 193V194.063H698.086V201H696.851V194.063H694.39V193H700.547Z" fill="white"/>
<g filter="url(#filter16_d)">
<rect x="4.60938" y="89" width="117.724" height="53" rx="8" fill="white"/>
</g>
<rect x="52.4971" y="109" width="56.8666" height="4" rx="2" fill="#E6E9EC"/>
<rect x="52.4971" y="119" width="28.9321" height="4" rx="2" fill="#E6E9EC"/>
<path fill-rule="evenodd" clip-rule="evenodd" d="M30.5486 130C38.2625 130 44.5158 123.732 44.5158 116C44.5158 108.268 38.2625 102 30.5486 102C22.8347 102 16.5813 108.268 16.5813 116C16.5813 123.732 22.8347 130 30.5486 130Z" fill="#E6E9EC"/>
<g filter="url(#filter17_d)">
<rect x="326.854" y="220" width="117.724" height="53" rx="8" fill="white"/>
</g>
<rect x="374.742" y="240" width="56.8666" height="4" rx="2" fill="#E6E9EC"/>
<rect x="374.742" y="250" width="28.9322" height="4" rx="2" fill="#E6E9EC"/>
<path fill-rule="evenodd" clip-rule="evenodd" d="M352.793 261C360.507 261 366.76 254.732 366.76 247C366.76 239.268 360.507 233 352.793 233C345.079 233 338.826 239.268 338.826 247C338.826 254.732 345.079 261 352.793 261Z" fill="#E6E9EC"/>
<g filter="url(#filter18_d)">
<path fill-rule="evenodd" clip-rule="evenodd" d="M251.05 54C246.632 54 243.05 57.5817 243.05 62V100C243.05 104.418 246.632 108 251.05 108H296.37C296.988 108 297.495 108.465 297.804 109L300.402 113.5C301.557 115.5 304.443 115.5 305.598 113.5L308.196 109C308.505 108.465 309.012 108 309.63 108H352.774C357.193 108 360.774 104.418 360.774 100V62C360.774 57.5817 357.193 54 352.774 54H251.05Z" fill="white"/>
</g>
<g opacity="0.1" filter="url(#filter19_d)">
<rect x="255.022" y="66" width="53.8737" height="4" rx="2" fill="#2F4B60"/>
</g>
<g opacity="0.1" filter="url(#filter20_d)">
<rect x="318.872" y="66" width="29.9298" height="30" rx="4" fill="#2F4B60"/>
</g>
<g opacity="0.1" filter="url(#filter21_d)">
<rect x="255.022" y="76" width="28.9322" height="4" rx="2" fill="#2F4B60"/>
</g>
<g opacity="0.1" filter="url(#filter22_d)">
<rect x="255.022" y="86" width="48.8853" height="4" rx="2" fill="#2F4B60"/>
</g>
<g filter="url(#filter23_d)">
<path fill-rule="evenodd" clip-rule="evenodd" d="M592.25 36C587.832 36 584.25 39.5817 584.25 44V86C584.25 90.4183 587.832 94 592.25 94H638.37C638.988 94 639.495 94.4647 639.804 95L642.402 99.5C643.557 101.5 646.443 101.5 647.598 99.5L650.196 95C650.505 94.4647 651.012 94 651.63 94H693.974C698.392 94 701.974 90.4183 701.974 86V44C701.974 39.5817 698.392 36 693.974 36H592.25Z" fill="white"/>
</g>
<rect opacity="0.2" x="596.222" y="48" width="53.8736" height="4" rx="2" fill="#939BA1"/>
<rect opacity="0.2" x="660.072" y="48" width="29.9298" height="30" rx="4" fill="#939BA1"/>
<rect opacity="0.2" x="596.222" y="58" width="28.9321" height="4" rx="2" fill="#939BA1"/>
<rect opacity="0.2" x="596.222" y="68" width="48.8854" height="4" rx="2" fill="#939BA1"/>
<rect opacity="0.2" x="596.222" y="78" width="44.8947" height="4" rx="2" fill="#939BA1"/>
<g filter="url(#filter24_d)">
<rect x="816.705" y="166" width="116.726" height="52" rx="8" fill="white"/>
</g>
<rect x="864.593" y="186" width="56.8666" height="4" rx="2" fill="#E9EBEC"/>
<rect x="864.593" y="194" width="23.9438" height="4" rx="2" fill="#E9EBEC"/>
<path fill-rule="evenodd" clip-rule="evenodd" d="M842.644 206C850.358 206 856.612 199.732 856.612 192C856.612 184.268 850.358 178 842.644 178C834.93 178 828.677 184.268 828.677 192C828.677 199.732 834.93 206 842.644 206Z" fill="#E9EBEC"/>
<defs>
<filter id="filter0_d" x="772.798" y="67" width="59.8784" height="60" filterUnits="userSpaceOnUse" color-interpolation-filters="sRGB">
<feFlood flood-opacity="0" result="BackgroundImageFix"/>
<feColorMatrix in="SourceAlpha" type="matrix" values="0 0 0 0 0 0 0 0 0 0 0 0 0 0 0 0 0 0 127 0"/>
<feOffset dy="2"/>
<feGaussianBlur stdDeviation="2"/>
<feColorMatrix type="matrix" values="0 0 0 0 0.241244 0 0 0 0 0.317266 0 0 0 0 0.374283 0 0 0 0.100572 0"/>
<feBlend mode="normal" in2="BackgroundImageFix" result="effect1_dropShadow"/>
<feBlend mode="normal" in="SourceGraphic" in2="effect1_dropShadow" result="shape"/>
</filter>
<filter id="filter1_d" x="772.798" y="55" width="59.8784" height="60" filterUnits="userSpaceOnUse" color-interpolation-filters="sRGB">
<feFlood flood-opacity="0" result="BackgroundImageFix"/>
<feColorMatrix in="SourceAlpha" type="matrix" values="0 0 0 0 0 0 0 0 0 0 0 0 0 0 0 0 0 0 127 0"/>
<feOffset dy="2"/>
<feGaussianBlur stdDeviation="2"/>
<feColorMatrix type="matrix" values="0 0 0 0 0.241244 0 0 0 0 0.317266 0 0 0 0 0.374283 0 0 0 0.100572 0"/>
<feBlend mode="normal" in2="BackgroundImageFix" result="effect1_dropShadow"/>
<feBlend mode="normal" in="SourceGraphic" in2="effect1_dropShadow" result="shape"/>
</filter>
<filter id="filter2_d" x="772.798" y="43" width="59.8784" height="60" filterUnits="userSpaceOnUse" color-interpolation-filters="sRGB">
<feFlood flood-opacity="0" result="BackgroundImageFix"/>
<feColorMatrix in="SourceAlpha" type="matrix" values="0 0 0 0 0 0 0 0 0 0 0 0 0 0 0 0 0 0 127 0"/>
<feOffset dy="2"/>
<feGaussianBlur stdDeviation="2"/>
<feColorMatrix type="matrix" values="0 0 0 0 0.241244 0 0 0 0 0.317266 0 0 0 0 0.374283 0 0 0 0.100572 0"/>
<feBlend mode="normal" in2="BackgroundImageFix" result="effect1_dropShadow"/>
<feBlend mode="normal" in="SourceGraphic" in2="effect1_dropShadow" result="shape"/>
</filter>
<filter id="filter3_d" x="772.798" y="31" width="59.8784" height="60" filterUnits="userSpaceOnUse" color-interpolation-filters="sRGB">
<feFlood flood-opacity="0" result="BackgroundImageFix"/>
<feColorMatrix in="SourceAlpha" type="matrix" values="0 0 0 0 0 0 0 0 0 0 0 0 0 0 0 0 0 0 127 0"/>
<feOffset dy="2"/>
<feGaussianBlur stdDeviation="2"/>
<feColorMatrix type="matrix" values="0 0 0 0 0.241244 0 0 0 0 0.317266 0 0 0 0 0.374283 0 0 0 0.100572 0"/>
<feBlend mode="normal" in2="BackgroundImageFix" result="effect1_dropShadow"/>
<feBlend mode="normal" in="SourceGraphic" in2="effect1_dropShadow" result="shape"/>
</filter>
<filter id="filter4_d" x="126.315" y="10" width="49.9018" height="50" filterUnits="userSpaceOnUse" color-interpolation-filters="sRGB">
<feFlood flood-opacity="0" result="BackgroundImageFix"/>
<feColorMatrix in="SourceAlpha" type="matrix" values="0 0 0 0 0 0 0 0 0 0 0 0 0 0 0 0 0 0 127 0"/>
<feOffset dy="2"/>
<feGaussianBlur stdDeviation="2"/>
<feColorMatrix type="matrix" values="0 0 0 0 0.241244 0 0 0 0 0.317266 0 0 0 0 0.374283 0 0 0 0.100572 0"/>
<feBlend mode="normal" in2="BackgroundImageFix" result="effect1_dropShadow"/>
<feBlend mode="normal" in="SourceGraphic" in2="effect1_dropShadow" result="shape"/>
</filter>
<filter id="filter5_d" x="126.315" y="0" width="49.9018" height="50" filterUnits="userSpaceOnUse" color-interpolation-filters="sRGB">
<feFlood flood-opacity="0" result="BackgroundImageFix"/>
<feColorMatrix in="SourceAlpha" type="matrix" values="0 0 0 0 0 0 0 0 0 0 0 0 0 0 0 0 0 0 127 0"/>
<feOffset dy="2"/>
<feGaussianBlur stdDeviation="2"/>
<feColorMatrix type="matrix" values="0 0 0 0 0.241244 0 0 0 0 0.317266 0 0 0 0 0.374283 0 0 0 0.100572 0"/>
<feBlend mode="normal" in2="BackgroundImageFix" result="effect1_dropShadow"/>
<feBlend mode="normal" in="SourceGraphic" in2="effect1_dropShadow" result="shape"/>
</filter>
<filter id="filter6_d" x="58.4736" y="230" width="49.9018" height="50" filterUnits="userSpaceOnUse" color-interpolation-filters="sRGB">
<feFlood flood-opacity="0" result="BackgroundImageFix"/>
<feColorMatrix in="SourceAlpha" type="matrix" values="0 0 0 0 0 0 0 0 0 0 0 0 0 0 0 0 0 0 127 0"/>
<feOffset dy="2"/>
<feGaussianBlur stdDeviation="2"/>
<feColorMatrix type="matrix" values="0 0 0 0 0.241244 0 0 0 0 0.317266 0 0 0 0 0.374283 0 0 0 0.100572 0"/>
<feBlend mode="normal" in2="BackgroundImageFix" result="effect1_dropShadow"/>
<feBlend mode="normal" in="SourceGraphic" in2="effect1_dropShadow" result="shape"/>
</filter>
<filter id="filter7_d" x="58.4736" y="220" width="49.9018" height="50" filterUnits="userSpaceOnUse" color-interpolation-filters="sRGB">
<feFlood flood-opacity="0" result="BackgroundImageFix"/>
<feColorMatrix in="SourceAlpha" type="matrix" values="0 0 0 0 0 0 0 0 0 0 0 0 0 0 0 0 0 0 127 0"/>
<feOffset dy="2"/>
<feGaussianBlur stdDeviation="2"/>
<feColorMatrix type="matrix" values="0 0 0 0 0.241244 0 0 0 0 0.317266 0 0 0 0 0.374283 0 0 0 0.100572 0"/>
<feBlend mode="normal" in2="BackgroundImageFix" result="effect1_dropShadow"/>
<feBlend mode="normal" in="SourceGraphic" in2="effect1_dropShadow" result="shape"/>
</filter>
<filter id="filter8_d" x="410.648" y="72" width="134.703" height="97" filterUnits="userSpaceOnUse" color-interpolation-filters="sRGB">
<feFlood flood-opacity="0" result="BackgroundImageFix"/>
<feColorMatrix in="SourceAlpha" type="matrix" values="0 0 0 0 0 0 0 0 0 0 0 0 0 0 0 0 0 0 127 0"/>
<feOffset dy="2"/>
<feGaussianBlur stdDeviation="2"/>
<feColorMatrix type="matrix" values="0 0 0 0 0.170288 0 0 0 0 0.231873 0 0 0 0 0.278061 0 0 0 0.124066 0"/>
<feBlend mode="normal" in2="BackgroundImageFix" result="effect1_dropShadow"/>
<feBlend mode="normal" in="SourceGraphic" in2="effect1_dropShadow" result="shape"/>
</filter>
<filter id="filter9_d" x="193.153" y="149" width="46.9088" height="47" filterUnits="userSpaceOnUse" color-interpolation-filters="sRGB">
<feFlood flood-opacity="0" result="BackgroundImageFix"/>
<feColorMatrix in="SourceAlpha" type="matrix" values="0 0 0 0 0 0 0 0 0 0 0 0 0 0 0 0 0 0 127 0"/>
<feOffset dx="-2"/>
<feGaussianBlur stdDeviation="2"/>
<feColorMatrix type="matrix" values="0 0 0 0 0.241244 0 0 0 0 0.317266 0 0 0 0 0.374283 0 0 0 0.100572 0"/>
<feBlend mode="normal" in2="BackgroundImageFix" result="effect1_dropShadow"/>
<feBlend mode="normal" in="SourceGraphic" in2="effect1_dropShadow" result="shape"/>
</filter>
<filter id="filter10_d" x="205.125" y="149" width="46.9087" height="47" filterUnits="userSpaceOnUse" color-interpolation-filters="sRGB">
<feFlood flood-opacity="0" result="BackgroundImageFix"/>
<feColorMatrix in="SourceAlpha" type="matrix" values="0 0 0 0 0 0 0 0 0 0 0 0 0 0 0 0 0 0 127 0"/>
<feOffset dx="-2"/>
<feGaussianBlur stdDeviation="2"/>
<feColorMatrix type="matrix" values="0 0 0 0 0.241244 0 0 0 0 0.317266 0 0 0 0 0.374283 0 0 0 0.100572 0"/>
<feBlend mode="normal" in2="BackgroundImageFix" result="effect1_dropShadow"/>
<feBlend mode="normal" in="SourceGraphic" in2="effect1_dropShadow" result="shape"/>
</filter>
<filter id="filter11_d" x="219.097" y="151" width="46.9088" height="47" filterUnits="userSpaceOnUse" color-interpolation-filters="sRGB">
<feFlood flood-opacity="0" result="BackgroundImageFix"/>
<feColorMatrix in="SourceAlpha" type="matrix" values="0 0 0 0 0 0 0 0 0 0 0 0 0 0 0 0 0 0 127 0"/>
<feOffset dy="2"/>
<feGaussianBlur stdDeviation="2"/>
<feColorMatrix type="matrix" values="0 0 0 0 0.241244 0 0 0 0 0.317266 0 0 0 0 0.374283 0 0 0 0.100572 0"/>
<feBlend mode="normal" in2="BackgroundImageFix" result="effect1_dropShadow"/>
<feBlend mode="normal" in="SourceGraphic" in2="effect1_dropShadow" result="shape"/>
</filter>
<filter id="filter12_d" x="625.14" y="171" width="52.8947" height="53" filterUnits="userSpaceOnUse" color-interpolation-filters="sRGB">
<feFlood flood-opacity="0" result="BackgroundImageFix"/>
<feColorMatrix in="SourceAlpha" type="matrix" values="0 0 0 0 0 0 0 0 0 0 0 0 0 0 0 0 0 0 127 0"/>
<feOffset dx="-2"/>
<feGaussianBlur stdDeviation="2"/>
<feColorMatrix type="matrix" values="0 0 0 0 0.241244 0 0 0 0 0.317266 0 0 0 0 0.374283 0 0 0 0.100572 0"/>
<feBlend mode="normal" in2="BackgroundImageFix" result="effect1_dropShadow"/>
<feBlend mode="normal" in="SourceGraphic" in2="effect1_dropShadow" result="shape"/>
</filter>
<filter id="filter13_d" x="637.112" y="171" width="52.8947" height="53" filterUnits="userSpaceOnUse" color-interpolation-filters="sRGB">
<feFlood flood-opacity="0" result="BackgroundImageFix"/>
<feColorMatrix in="SourceAlpha" type="matrix" values="0 0 0 0 0 0 0 0 0 0 0 0 0 0 0 0 0 0 127 0"/>
<feOffset dx="-2"/>
<feGaussianBlur stdDeviation="2"/>
<feColorMatrix type="matrix" values="0 0 0 0 0.241244 0 0 0 0 0.317266 0 0 0 0 0.374283 0 0 0 0.100572 0"/>
<feBlend mode="normal" in2="BackgroundImageFix" result="effect1_dropShadow"/>
<feBlend mode="normal" in="SourceGraphic" in2="effect1_dropShadow" result="shape"/>
</filter>
<filter id="filter14_d" x="649.084" y="171" width="52.8947" height="53" filterUnits="userSpaceOnUse" color-interpolation-filters="sRGB">
<feFlood flood-opacity="0" result="BackgroundImageFix"/>
<feColorMatrix in="SourceAlpha" type="matrix" values="0 0 0 0 0 0 0 0 0 0 0 0 0 0 0 0 0 0 127 0"/>
<feOffset dx="-2"/>
<feGaussianBlur stdDeviation="2"/>
<feColorMatrix type="matrix" values="0 0 0 0 0.241244 0 0 0 0 0.317266 0 0 0 0 0.374283 0 0 0 0.100572 0"/>
<feBlend mode="normal" in2="BackgroundImageFix" result="effect1_dropShadow"/>
<feBlend mode="normal" in="SourceGraphic" in2="effect1_dropShadow" result="shape"/>
</filter>
<filter id="filter15_d" x="663.056" y="173" width="52.8948" height="53" filterUnits="userSpaceOnUse" color-interpolation-filters="sRGB">
<feFlood flood-opacity="0" result="BackgroundImageFix"/>
<feColorMatrix in="SourceAlpha" type="matrix" values="0 0 0 0 0 0 0 0 0 0 0 0 0 0 0 0 0 0 127 0"/>
<feOffset dy="2"/>
<feGaussianBlur stdDeviation="2"/>
<feColorMatrix type="matrix" values="0 0 0 0 0.241244 0 0 0 0 0.317266 0 0 0 0 0.374283 0 0 0 0.100572 0"/>
<feBlend mode="normal" in2="BackgroundImageFix" result="effect1_dropShadow"/>
<feBlend mode="normal" in="SourceGraphic" in2="effect1_dropShadow" result="shape"/>
</filter>
<filter id="filter16_d" x="0.609375" y="87" width="125.724" height="61" filterUnits="userSpaceOnUse" color-interpolation-filters="sRGB">
<feFlood flood-opacity="0" result="BackgroundImageFix"/>
<feColorMatrix in="SourceAlpha" type="matrix" values="0 0 0 0 0 0 0 0 0 0 0 0 0 0 0 0 0 0 127 0"/>
<feOffset dy="2"/>
<feGaussianBlur stdDeviation="2"/>
<feColorMatrix type="matrix" values="0 0 0 0 0.170288 0 0 0 0 0.231873 0 0 0 0 0.278061 0 0 0 0.124066 0"/>
<feBlend mode="normal" in2="BackgroundImageFix" result="effect1_dropShadow"/>
<feBlend mode="normal" in="SourceGraphic" in2="effect1_dropShadow" result="shape"/>
</filter>
<filter id="filter17_d" x="322.854" y="218" width="125.724" height="61" filterUnits="userSpaceOnUse" color-interpolation-filters="sRGB">
<feFlood flood-opacity="0" result="BackgroundImageFix"/>
<feColorMatrix in="SourceAlpha" type="matrix" values="0 0 0 0 0 0 0 0 0 0 0 0 0 0 0 0 0 0 127 0"/>
<feOffset dy="2"/>
<feGaussianBlur stdDeviation="2"/>
<feColorMatrix type="matrix" values="0 0 0 0 0.170288 0 0 0 0 0.231873 0 0 0 0 0.278061 0 0 0 0.124066 0"/>
<feBlend mode="normal" in2="BackgroundImageFix" result="effect1_dropShadow"/>
<feBlend mode="normal" in="SourceGraphic" in2="effect1_dropShadow" result="shape"/>
</filter>
<filter id="filter18_d" x="239.05" y="52" width="125.724" height="69" filterUnits="userSpaceOnUse" color-interpolation-filters="sRGB">
<feFlood flood-opacity="0" result="BackgroundImageFix"/>
<feColorMatrix in="SourceAlpha" type="matrix" values="0 0 0 0 0 0 0 0 0 0 0 0 0 0 0 0 0 0 127 0"/>
<feOffset dy="2"/>
<feGaussianBlur stdDeviation="2"/>
<feColorMatrix type="matrix" values="0 0 0 0 0.170288 0 0 0 0 0.231873 0 0 0 0 0.278061 0 0 0 0.124066 0"/>
<feBlend mode="normal" in2="BackgroundImageFix" result="effect1_dropShadow"/>
<feBlend mode="normal" in="SourceGraphic" in2="effect1_dropShadow" result="shape"/>
</filter>
<filter id="filter19_d" x="253.022" y="66" width="57.8737" height="8" filterUnits="userSpaceOnUse" color-interpolation-filters="sRGB">
<feFlood flood-opacity="0" result="BackgroundImageFix"/>
<feColorMatrix in="SourceAlpha" type="matrix" values="0 0 0 0 0 0 0 0 0 0 0 0 0 0 0 0 0 0 127 0"/>
<feOffset dy="2"/>
<feGaussianBlur stdDeviation="1"/>
<feColorMatrix type="matrix" values="0 0 0 0 0.121239 0 0 0 0 0.174212 0 0 0 0 0.406197 0 0 0 0.170148 0"/>
<feBlend mode="normal" in2="BackgroundImageFix" result="effect1_dropShadow"/>
<feBlend mode="normal" in="SourceGraphic" in2="effect1_dropShadow" result="shape"/>
</filter>
<filter id="filter20_d" x="316.872" y="66" width="33.9298" height="34" filterUnits="userSpaceOnUse" color-interpolation-filters="sRGB">
<feFlood flood-opacity="0" result="BackgroundImageFix"/>
<feColorMatrix in="SourceAlpha" type="matrix" values="0 0 0 0 0 0 0 0 0 0 0 0 0 0 0 0 0 0 127 0"/>
<feOffset dy="2"/>
<feGaussianBlur stdDeviation="1"/>
<feColorMatrix type="matrix" values="0 0 0 0 0.121239 0 0 0 0 0.174212 0 0 0 0 0.406197 0 0 0 0.170148 0"/>
<feBlend mode="normal" in2="BackgroundImageFix" result="effect1_dropShadow"/>
<feBlend mode="normal" in="SourceGraphic" in2="effect1_dropShadow" result="shape"/>
</filter>
<filter id="filter21_d" x="253.022" y="76" width="32.9322" height="8" filterUnits="userSpaceOnUse" color-interpolation-filters="sRGB">
<feFlood flood-opacity="0" result="BackgroundImageFix"/>
<feColorMatrix in="SourceAlpha" type="matrix" values="0 0 0 0 0 0 0 0 0 0 0 0 0 0 0 0 0 0 127 0"/>
<feOffset dy="2"/>
<feGaussianBlur stdDeviation="1"/>
<feColorMatrix type="matrix" values="0 0 0 0 0.121239 0 0 0 0 0.174212 0 0 0 0 0.406197 0 0 0 0.170148 0"/>
<feBlend mode="normal" in2="BackgroundImageFix" result="effect1_dropShadow"/>
<feBlend mode="normal" in="SourceGraphic" in2="effect1_dropShadow" result="shape"/>
</filter>
<filter id="filter22_d" x="253.022" y="86" width="52.8853" height="8" filterUnits="userSpaceOnUse" color-interpolation-filters="sRGB">
<feFlood flood-opacity="0" result="BackgroundImageFix"/>
<feColorMatrix in="SourceAlpha" type="matrix" values="0 0 0 0 0 0 0 0 0 0 0 0 0 0 0 0 0 0 127 0"/>
<feOffset dy="2"/>
<feGaussianBlur stdDeviation="1"/>
<feColorMatrix type="matrix" values="0 0 0 0 0.121239 0 0 0 0 0.174212 0 0 0 0 0.406197 0 0 0 0.170148 0"/>
<feBlend mode="normal" in2="BackgroundImageFix" result="effect1_dropShadow"/>
<feBlend mode="normal" in="SourceGraphic" in2="effect1_dropShadow" result="shape"/>
</filter>
<filter id="filter23_d" x="580.25" y="34" width="125.724" height="73" filterUnits="userSpaceOnUse" color-interpolation-filters="sRGB">
<feFlood flood-opacity="0" result="BackgroundImageFix"/>
<feColorMatrix in="SourceAlpha" type="matrix" values="0 0 0 0 0 0 0 0 0 0 0 0 0 0 0 0 0 0 127 0"/>
<feOffset dy="2"/>
<feGaussianBlur stdDeviation="2"/>
<feColorMatrix type="matrix" values="0 0 0 0 0.170288 0 0 0 0 0.231873 0 0 0 0 0.278061 0 0 0 0.124066 0"/>
<feBlend mode="normal" in2="BackgroundImageFix" result="effect1_dropShadow"/>
<feBlend mode="normal" in="SourceGraphic" in2="effect1_dropShadow" result="shape"/>
</filter>
<filter id="filter24_d" x="812.705" y="164" width="124.726" height="60" filterUnits="userSpaceOnUse" color-interpolation-filters="sRGB">
<feFlood flood-opacity="0" result="BackgroundImageFix"/>
<feColorMatrix in="SourceAlpha" type="matrix" values="0 0 0 0 0 0 0 0 0 0 0 0 0 0 0 0 0 0 127 0"/>
<feOffset dy="2"/>
<feGaussianBlur stdDeviation="2"/>
<feColorMatrix type="matrix" values="0 0 0 0 0.170288 0 0 0 0 0.231873 0 0 0 0 0.278061 0 0 0 0.124066 0"/>
<feBlend mode="normal" in2="BackgroundImageFix" result="effect1_dropShadow"/>
<feBlend mode="normal" in="SourceGraphic" in2="effect1_dropShadow" result="shape"/>
</filter>
</defs>
</svg>
