<svg width="126" height="69" viewBox="0 0 126 69" fill="none" xmlns="http://www.w3.org/2000/svg">
<g filter="url(#filter0_d)">
<path fill-rule="evenodd" clip-rule="evenodd" d="M12 2C7.58172 2 4 5.58172 4 10V48C4 52.4183 7.58172 56 12 56H57.3196C57.9377 56 58.4446 56.4647 58.7537 57V57L61.3517 61.5C62.5065 63.5 65.3932 63.5 66.5479 61.5L69.146 57V57C69.455 56.4647 69.962 56 70.5801 56H113.724C118.142 56 121.724 52.4183 121.724 48V10C121.724 5.58172 118.142 2 113.724 2H12Z" fill="white"/>
</g>
<defs>
<filter id="filter0_d" x="0" y="0" width="125.724" height="69" filterUnits="userSpaceOnUse" color-interpolation-filters="sRGB">
<feFlood flood-opacity="0" result="BackgroundImageFix"/>
<feColorMatrix in="SourceAlpha" type="matrix" values="0 0 0 0 0 0 0 0 0 0 0 0 0 0 0 0 0 0 127 0"/>
<feOffset dy="2"/>
<feGaussianBlur stdDeviation="2"/>
<feColorMatrix type="matrix" values="0 0 0 0 0.170288 0 0 0 0 0.231873 0 0 0 0 0.278061 0 0 0 0.124066 0"/>
<feBlend mode="normal" in2="BackgroundImageFix" result="effect1_dropShadow"/>
<feBlend mode="normal" in="SourceGraphic" in2="effect1_dropShadow" result="shape"/>
</filter>
</defs>
</svg>
