<svg width="110" height="110" viewBox="0 0 110 110" fill="none" xmlns="http://www.w3.org/2000/svg">
<circle opacity="0.1" cx="55" cy="55" r="55" fill="#4360DF"/>
<path opacity="0.3" d="M82.8667 54.0779C83.2929 54.6378 83.2929 55.3622 82.8667 55.9221C80.8859 58.5243 77.073 63.0955 72.1188 66.999C67.1382 70.9232 61.2238 74 55 74C48.7762 74 42.8618 70.9232 37.8812 66.999C32.927 63.0955 29.1141 58.5243 27.1333 55.9221C26.7071 55.3622 26.7071 54.6378 27.1333 54.0779C29.1141 51.4757 32.927 46.9045 37.8812 43.001C42.8618 39.0768 48.7762 36 55 36C61.2238 36 67.1382 39.0768 72.1188 43.001C77.073 46.9045 80.8859 51.4757 82.8667 54.0779Z" fill="#ECEFFC" stroke="#4360DF" stroke-width="4"/>
<circle cx="55" cy="55" r="15" fill="#4360DF"/>
<circle opacity="0.5" r="4" transform="matrix(1 0 0 -1 58 51)" fill="white"/>
</svg>
