<svg width="29" height="36" viewBox="0 0 29 36" fill="none" xmlns="http://www.w3.org/2000/svg">
<path d="M24.2209 19.1282C24.1759 14.5691 27.8992 12.3826 28.0655 12.2739C25.9735 9.1795 22.7146 8.75559 21.5533 8.70658C18.7799 8.42273 16.1417 10.3571 14.7341 10.3571C13.3301 10.3571 11.1581 8.74855 8.85795 8.79081C5.835 8.83623 3.04766 10.5675 1.49111 13.3042C-1.64967 18.8131 0.686787 26.9743 3.74799 31.4422C5.24381 33.6292 7.02747 36.0855 9.36936 35.9977C11.6246 35.9067 12.4774 34.5226 15.2039 34.5226C17.9304 34.5226 18.6969 35.9977 21.0834 35.9524C23.5102 35.9069 25.0477 33.7236 26.5333 31.5299C28.251 28.9928 28.9583 26.5364 29 26.4103C28.9461 26.3854 24.2677 24.5738 24.2209 19.1282ZM19.7365 5.74882C20.9794 4.22451 21.8184 2.10972 21.5895 0C19.7991 0.0736874 17.6289 1.20551 16.3444 2.72636C15.1918 4.07552 14.1828 6.22884 14.4532 8.29637C16.4519 8.45401 18.4922 7.26967 19.7365 5.74882Z" fill="#4360DF"/>
</svg>
