<svg width="305" height="280" viewBox="0 0 305 280" fill="none" xmlns="http://www.w3.org/2000/svg">	
<g filter="url(#filter0_d)">	
<path fill-rule="evenodd" clip-rule="evenodd" d="M153 90C125.386 90 103 112.386 103 140C103 167.614 125.386 190 153 190C180.614 190 203 167.614 203 140C203 112.386 180.614 90 153 90Z" fill="#4360DF"/>	
<path fill-rule="evenodd" clip-rule="evenodd" d="M153.181 137.808C155.698 138.07 158.215 138.332 161.31 138.159C169.692 137.693 174.77 133.4 174.41 126.984C174.043 120.456 167.287 116.434 160.528 116.81C149.512 117.423 141.412 127.071 140.5 138.098C141.996 137.75 143.57 137.541 145.055 137.458C148.148 137.286 150.665 137.547 153.181 137.808ZM131.589 152.08C131.956 158.064 138.712 161.751 145.471 161.407C156.487 160.846 164.587 152.001 165.5 141.891C164.004 142.212 162.429 142.404 160.944 142.479C157.85 142.638 155.333 142.397 152.816 142.158C150.3 141.919 147.783 141.68 144.689 141.837C136.306 142.264 131.228 146.199 131.589 152.08Z" fill="white"/>	
</g>	
<circle opacity="0.1" cx="153" cy="140" r="79" stroke="#4360DF" stroke-width="2" stroke-linecap="round" stroke-linejoin="round" stroke-dasharray="8 10"/>	
<circle opacity="0.2" cx="153" cy="140" r="139" stroke="#4360DF" stroke-width="2" stroke-linecap="round" stroke-linejoin="round" stroke-dasharray="8 10"/>	
<g filter="url(#filter1_d)">	
<circle cx="212" cy="264" r="9" fill="#4360DF"/>	
</g>	
<g filter="url(#filter2_d)">	
<circle cx="47" cy="47" r="9" fill="#4360DF"/>	
</g>	
<g filter="url(#filter3_d)">	
<circle cx="287" cy="91" r="16" fill="#4360DF"/>	
</g>	
<g filter="url(#filter4_d)">	
<circle cx="15" cy="166" r="13" fill="#4360DF"/>	
</g>	
<defs>	
<filter id="filter0_d" x="101" y="90" width="104" height="104" filterUnits="userSpaceOnUse" color-interpolation-filters="sRGB">	
<feFlood flood-opacity="0" result="BackgroundImageFix"/>	
<feColorMatrix in="SourceAlpha" type="matrix" values="0 0 0 0 0 0 0 0 0 0 0 0 0 0 0 0 0 0 127 0"/>	
<feOffset dy="2"/>	
<feGaussianBlur stdDeviation="1"/>	
<feColorMatrix type="matrix" values="0 0 0 0 0.170288 0 0 0 0 0.231873 0 0 0 0 0.278061 0 0 0 0.25 0"/>	
<feBlend mode="normal" in2="BackgroundImageFix" result="effect1_dropShadow"/>	
<feBlend mode="normal" in="SourceGraphic" in2="effect1_dropShadow" result="shape"/>	
</filter>	
<filter id="filter1_d" x="201" y="255" width="22" height="22" filterUnits="userSpaceOnUse" color-interpolation-filters="sRGB">	
<feFlood flood-opacity="0" result="BackgroundImageFix"/>	
<feColorMatrix in="SourceAlpha" type="matrix" values="0 0 0 0 0 0 0 0 0 0 0 0 0 0 0 0 0 0 127 0"/>	
<feOffset dy="2"/>	
<feGaussianBlur stdDeviation="1"/>	
<feColorMatrix type="matrix" values="0 0 0 0 0.170288 0 0 0 0 0.231873 0 0 0 0 0.278061 0 0 0 0.25 0"/>	
<feBlend mode="normal" in2="BackgroundImageFix" result="effect1_dropShadow"/>	
<feBlend mode="normal" in="SourceGraphic" in2="effect1_dropShadow" result="shape"/>	
</filter>	
<filter id="filter2_d" x="36" y="38" width="22" height="22" filterUnits="userSpaceOnUse" color-interpolation-filters="sRGB">	
<feFlood flood-opacity="0" result="BackgroundImageFix"/>	
<feColorMatrix in="SourceAlpha" type="matrix" values="0 0 0 0 0 0 0 0 0 0 0 0 0 0 0 0 0 0 127 0"/>	
<feOffset dy="2"/>	
<feGaussianBlur stdDeviation="1"/>	
<feColorMatrix type="matrix" values="0 0 0 0 0.170288 0 0 0 0 0.231873 0 0 0 0 0.278061 0 0 0 0.25 0"/>	
<feBlend mode="normal" in2="BackgroundImageFix" result="effect1_dropShadow"/>	
<feBlend mode="normal" in="SourceGraphic" in2="effect1_dropShadow" result="shape"/>	
</filter>	
<filter id="filter3_d" x="269" y="75" width="36" height="36" filterUnits="userSpaceOnUse" color-interpolation-filters="sRGB">	
<feFlood flood-opacity="0" result="BackgroundImageFix"/>	
<feColorMatrix in="SourceAlpha" type="matrix" values="0 0 0 0 0 0 0 0 0 0 0 0 0 0 0 0 0 0 127 0"/>	
<feOffset dy="2"/>	
<feGaussianBlur stdDeviation="1"/>	
<feColorMatrix type="matrix" values="0 0 0 0 0.170288 0 0 0 0 0.231873 0 0 0 0 0.278061 0 0 0 0.25 0"/>	
<feBlend mode="normal" in2="BackgroundImageFix" result="effect1_dropShadow"/>	
<feBlend mode="normal" in="SourceGraphic" in2="effect1_dropShadow" result="shape"/>	
</filter>	
<filter id="filter4_d" x="0" y="153" width="30" height="30" filterUnits="userSpaceOnUse" color-interpolation-filters="sRGB">	
<feFlood flood-opacity="0" result="BackgroundImageFix"/>	
<feColorMatrix in="SourceAlpha" type="matrix" values="0 0 0 0 0 0 0 0 0 0 0 0 0 0 0 0 0 0 127 0"/>	
<feOffset dy="2"/>	
<feGaussianBlur stdDeviation="1"/>	
<feColorMatrix type="matrix" values="0 0 0 0 0.170288 0 0 0 0 0.231873 0 0 0 0 0.278061 0 0 0 0.25 0"/>	
<feBlend mode="normal" in2="BackgroundImageFix" result="effect1_dropShadow"/>	
<feBlend mode="normal" in="SourceGraphic" in2="effect1_dropShadow" result="shape"/>	
</filter>	
</defs>	
</svg>