<svg width="32" height="32" viewBox="0 0 32 32" fill="none" xmlns="http://www.w3.org/2000/svg">
<path d="M4.92493 10.6999C3.86177 10.6999 3 11.4587 3 12.3969V19.6553C3 20.5926 3.86187 21.3533 4.92493 21.3533C5.98704 21.3533 6.84986 20.5927 6.84986 19.6553V12.3969C6.84997 11.4596 5.98714 10.6999 4.92493 10.6999ZM19.4849 3.60153L21.1672 1.91132C21.3752 1.70275 21.3752 1.36607 21.1672 1.15643C20.9593 0.947857 20.6241 0.947857 20.4161 1.15643L18.3458 3.23874C17.6053 3.05628 16.8243 2.95546 16.0116 2.95546C15.2086 2.95546 14.4343 3.05543 13.7024 3.23299L11.6358 1.15654C11.4279 0.947963 11.0917 0.947963 10.8847 1.15654C10.6768 1.36511 10.6768 1.70275 10.8847 1.91143L12.5583 3.5929C9.76582 4.67179 7.82544 7.01106 7.82544 9.72964C7.82544 9.76268 24.1958 9.73156 24.1958 9.72964C24.1968 7.01788 22.267 4.68436 19.4849 3.60153ZM13.6032 7.79408C13.0707 7.79408 12.6402 7.36138 12.6402 6.82572C12.6402 6.29113 13.0706 5.85736 13.6032 5.85736C14.1358 5.85736 14.5662 6.29102 14.5662 6.82572C14.5671 7.36031 14.1338 7.79408 13.6032 7.79408ZM18.419 7.79408C17.8865 7.79408 17.456 7.36138 17.456 6.82572C17.456 6.29113 17.8864 5.85736 18.419 5.85736C18.9515 5.85736 19.382 6.29102 19.382 6.82572C19.382 7.36042 18.9505 7.79408 18.419 7.79408ZM27.076 10.6999C26.0129 10.6999 25.1501 11.4587 25.1501 12.3969V19.6553C25.1501 20.5926 26.013 21.3533 27.076 21.3533C28.1391 21.3533 29 20.5917 29 19.6553V12.3969C29 11.4596 28.1372 10.6999 27.076 10.6999ZM7.82544 22.3129C7.82544 23.9138 9.11391 25.2102 10.7047 25.2159V30.302C10.7047 31.2402 11.5666 32 12.6296 32C13.6917 32 14.5536 31.2403 14.5536 30.302V25.2159H17.4464V30.302C17.4464 31.2402 18.3083 32 19.3713 32C20.4334 32 21.2953 31.2403 21.2953 30.302V25.2159H21.3078C22.9034 25.2159 24.1967 23.9158 24.1967 22.3129V10.697H7.8264V22.3129H7.82544Z" fill="#4360DF"/>
</svg>
