<svg width="32" height="32" viewBox="0 0 32 32" fill="none" xmlns="http://www.w3.org/2000/svg">
<path d="M29 15.9997C29 23.1796 23.1802 29 16.0003 29C8.82034 29 3 23.1796 3 15.9997C3 8.82017 8.82043 3 16.0003 3C23.1802 3 29 8.82008 29 15.9997Z" fill="#4360DF"/>
<path d="M9.29338 15.9996C9.29338 16.9266 8.55614 17.6783 7.64615 17.6783C6.73723 17.6783 6 16.9267 6 15.9996C6 15.073 6.73723 14.3215 7.64615 14.3215C8.55614 14.3215 9.29338 15.073 9.29338 15.9996ZM18.6612 24.1609C19.116 24.963 20.1225 25.2382 20.9101 24.7752C21.6976 24.3117 21.9674 23.285 21.5127 22.4822C21.058 21.6795 20.0513 21.405 19.2639 21.8685C18.4763 22.3321 18.2065 23.3582 18.6612 24.1609ZM21.5126 9.51744C21.9673 8.71454 21.698 7.68819 20.91 7.22516C20.123 6.76168 19.116 7.03671 18.6611 7.83924C18.2064 8.64196 18.4762 9.66822 19.2638 10.1317C20.0513 10.5952 21.0585 10.3202 21.5126 9.51744ZM15.94 11.2134C18.3935 11.2134 20.4068 13.1305 20.6171 15.576L23 15.5377C22.8869 13.7207 22.1137 12.0865 20.9222 10.8816C20.2915 11.1296 19.5597 11.0959 18.9284 10.724C18.2966 10.3522 17.902 9.72275 17.7976 9.04078C17.2054 8.87683 16.5825 8.78905 15.94 8.78905C14.8132 8.78905 13.748 9.05764 12.8022 9.5354L13.9616 11.6578C14.5625 11.3732 15.2336 11.2134 15.94 11.2134ZM11.2442 15.9996C11.2442 14.3806 12.0334 12.9489 13.2409 12.0832L12.0174 9.99843C10.6002 10.9632 9.54457 12.4348 9.0992 14.1601C9.62626 14.5927 9.96393 15.2559 9.96393 15.9997C9.96393 16.7439 9.62617 17.4071 9.0992 17.8398C9.54457 19.5651 10.6002 21.0367 12.0174 22.002L13.2409 19.9172C12.0334 19.0508 11.2442 17.6197 11.2442 15.9996ZM15.94 20.7867C15.2337 20.7867 14.5626 20.627 13.9616 20.3418L12.8022 22.4643C13.748 22.9424 14.8131 23.2107 15.94 23.2107C16.5824 23.2107 17.2054 23.1236 17.7976 22.9593C17.9019 22.2769 18.2965 21.6474 18.9284 21.2763C19.5597 20.9044 20.2915 20.8706 20.9222 21.1187C22.1138 19.9132 22.8869 18.279 23 16.462L20.6171 16.4243C20.4067 18.8691 18.3935 20.7867 15.94 20.7867Z" fill="white"/>
</svg>
