<svg width="24" height="24" viewBox="0 0 24 24" fill="none" xmlns="http://www.w3.org/2000/svg">
<path opacity="0.4" d="M16.6928 12.0328C16.6711 9.87985 18.4686 8.84733 18.5489 8.79603C17.5389 7.33476 15.9657 7.13458 15.405 7.11144C14.0661 6.9774 12.7925 7.89085 12.113 7.89085C11.4352 7.89085 10.3867 7.13126 9.27625 7.15122C7.8169 7.17267 6.47128 7.99023 5.71985 9.28252C4.20361 11.884 5.33155 15.7379 6.80937 17.8477C7.5315 18.8804 8.39257 20.0404 9.52314 19.9989C10.6119 19.956 11.0236 19.3024 12.3398 19.3024C13.6561 19.3024 14.0261 19.9989 15.1782 19.9775C16.3498 19.956 17.092 18.925 17.8092 17.8891C18.6384 16.691 18.9799 15.5311 19 15.4715C18.974 15.4598 16.7155 14.6043 16.6928 12.0328ZM14.5279 5.71472C15.128 4.99491 15.533 3.99626 15.4225 3C14.5582 3.0348 13.5105 3.56927 12.8904 4.28745C12.3339 4.92455 11.8469 5.9414 11.9774 6.91773C12.9423 6.99217 13.9273 6.4329 14.5279 5.71472Z" fill="#4360DF"/>
</svg>
