<svg width="56" height="56" viewBox="0 0 56 56" fill="none" xmlns="http://www.w3.org/2000/svg">
<path fill-rule="evenodd" clip-rule="evenodd" d="M28 0C12.536 0 0 12.5362 0 28C0 43.464 12.536 56 28 56C43.464 56 56 43.464 56 28C56 12.5362 43.464 0 28 0Z" fill="#4360DF"/>
<path fill-rule="evenodd" clip-rule="evenodd" d="M28.9403 26.7727C30.3463 26.9191 31.7523 27.0654 33.4809 26.9691C38.1643 26.708 41.0013 24.3042 40.8 20.7111C40.5948 17.0553 36.8205 14.803 33.0441 15.0136C26.8898 15.3565 22.3642 20.7597 21.8545 26.9353C22.6903 26.7395 23.57 26.6226 24.3996 26.5764C26.1283 26.4801 27.5343 26.6264 28.9403 26.7727ZM16.8758 34.7648C17.07 38.116 20.6457 40.1806 24.2235 39.9875C30.0538 39.6731 34.3414 34.7202 34.8241 29.0592C34.0323 29.2387 33.199 29.346 32.413 29.3883C30.7753 29.4766 29.4432 29.3425 28.1111 29.2083C26.7791 29.0742 25.447 28.9401 23.8094 29.0284C19.3727 29.2677 16.6848 31.4711 16.8758 34.7648Z" fill="white"/>
</svg>
