<svg width="25" height="31" viewBox="0 0 25 31" fill="none" xmlns="http://www.w3.org/2000/svg">
<path d="M20.8801 16.4715C20.8413 12.5456 24.051 10.6628 24.1944 10.5692C22.391 7.90457 19.5816 7.53953 18.5804 7.49733C16.1895 7.2529 13.9152 8.91861 12.7018 8.91861C11.4915 8.91861 9.61905 7.53348 7.63616 7.56987C5.03018 7.60898 2.62729 9.09982 1.28544 11.4564C-1.42213 16.2002 0.592058 23.2279 3.23103 27.0752C4.52053 28.9585 6.05817 31.0736 8.07703 30.998C10.0212 30.9197 10.7564 29.7278 13.1068 29.7278C15.4572 29.7278 16.118 30.998 18.1754 30.959C20.2675 30.9198 21.5929 29.0398 22.8735 27.1508C24.3543 24.966 24.964 22.8508 25 22.7422C24.9535 22.7208 20.9205 21.1608 20.8801 16.4715ZM17.0142 4.95037C18.0857 3.63777 18.809 1.81671 18.6117 0C17.0682 0.0634531 15.1974 1.03808 14.09 2.3477C13.0963 3.50948 12.2265 5.36372 12.4596 7.1441C14.1827 7.27985 15.9415 6.26 17.0142 4.95037Z" fill="#4360DF"/>
</svg>
